<?xml version="1.0" standalone="no"?>
<!DOCTYPE svg PUBLIC "-//W3C//DTD SVG 20010904//EN"
 "http://www.w3.org/TR/2001/REC-SVG-20010904/DTD/svg10.dtd">
<svg version="1.0" xmlns="http://www.w3.org/2000/svg"
 width="1577.000000pt" height="247.000000pt" viewBox="0 0 1577.000000 247.000000"
 preserveAspectRatio="xMidYMid meet">

<g transform="translate(0.000000,247.000000) scale(0.100000,-0.100000)"
fill="#f0e9db" stroke="none">
<path d="M15430 2404 c-19 -8 -58 -33 -88 -55 -62 -47 -100 -64 -164 -73 -54
-8 -94 -35 -85 -58 7 -21 46 -27 109 -17 28 5 53 7 55 5 4 -4 -57 -1938 -62
-1953 -3 -9 -25 -13 -63 -13 -103 0 -181 -58 -142 -106 10 -12 68 -14 351 -14
336 0 338 0 353 22 14 20 14 24 -1 40 -9 10 -40 29 -69 43 -45 21 -57 23 -78
13 -15 -6 -29 -8 -32 -5 -13 13 -16 1045 -4 1487 10 399 14 463 31 519 26 87
25 126 -6 156 -28 28 -55 31 -105 9z"/>
<path d="M3088 2376 c-20 -7 -69 -34 -109 -60 -48 -30 -83 -46 -105 -46 -50 0
-82 -16 -104 -52 -24 -40 -25 -71 -4 -92 23 -24 53 -19 91 14 36 32 49 31 62
-3 5 -12 -2 -416 -15 -897 -13 -481 -23 -912 -24 -957 l0 -83 -62 0 c-102 0
-138 -9 -138 -34 1 -51 -2 -51 316 -52 287 -1 297 0 315 20 32 33 20 50 -48
66 -102 24 -98 16 -95 273 l2 222 66 63 c103 100 243 155 298 119 58 -39 126
-235 112 -328 -4 -24 -9 -102 -12 -174 -6 -168 -18 -191 -90 -187 -39 3 -55
-1 -74 -17 -46 -39 -13 -48 203 -54 105 -3 209 -10 230 -15 22 -6 39 -6 43 -1
3 5 22 9 43 9 40 0 61 14 61 41 0 24 -15 32 -79 40 -32 5 -62 16 -73 27 -18
17 -19 26 -9 98 5 43 13 174 16 291 7 235 4 251 -59 314 -78 79 -237 111 -372
74 -66 -18 -175 -85 -246 -153 -23 -22 -42 -32 -53 -29 -14 6 -14 9 -1 36 13
25 17 136 22 770 6 596 5 743 -6 756 -15 18 -52 19 -102 1z"/>
<path d="M10517 1923 c-115 -13 -145 -14 -177 -3 -30 10 -69 11 -157 5 -65 -5
-145 -9 -178 -8 -63 0 -75 -7 -75 -44 0 -34 32 -45 104 -38 110 12 150 -28
176 -177 9 -51 9 -79 0 -125 -9 -41 -10 -100 -5 -198 12 -218 14 -604 4 -671
-5 -37 -5 -73 1 -93 11 -40 -3 -250 -21 -311 -7 -23 -26 -56 -43 -72 -26 -26
-33 -29 -65 -22 -60 13 -163 5 -195 -15 -22 -14 -25 -20 -15 -27 8 -5 262 -9
564 -9 539 -1 704 6 855 36 65 12 210 82 241 115 13 13 27 24 33 24 7 0 48 37
92 83 113 114 167 229 195 412 16 108 4 510 -16 541 -8 12 -28 64 -45 115 -33
102 -61 142 -180 259 -104 101 -215 157 -387 195 -124 27 -150 30 -408 38
-111 4 -202 1 -298 -10z m433 -87 c41 -8 100 -24 131 -35 66 -25 190 -109 216
-147 10 -14 35 -46 56 -71 23 -28 44 -67 54 -105 9 -33 23 -62 30 -65 7 -3 13
-11 13 -18 0 -7 6 -15 13 -18 7 -3 23 -38 35 -78 34 -120 45 -238 39 -409 -6
-148 -8 -159 -41 -236 -53 -126 -72 -158 -111 -192 -20 -18 -39 -32 -44 -32
-4 0 -22 -22 -39 -49 -40 -62 -119 -115 -231 -156 -83 -31 -90 -32 -211 -28
-69 2 -159 4 -200 3 -105 -1 -112 6 -124 116 -5 49 -7 152 -5 229 2 77 4 172
3 210 -2 255 -2 683 0 805 2 155 19 230 56 250 27 15 167 38 230 39 30 0 89
-6 130 -13z"/>
<path d="M563 1895 c-21 -44 -11 -57 49 -60 24 -1 81 -5 128 -10 74 -7 88 -11
108 -34 50 -58 56 -70 42 -95 -9 -17 -10 -33 -2 -57 10 -36 10 -141 -3 -334
-6 -103 -5 -126 9 -153 13 -24 14 -37 6 -52 -7 -13 -8 -64 -3 -152 14 -243 9
-352 -22 -453 -16 -49 -31 -115 -34 -145 -7 -60 -16 -80 -35 -80 -7 0 -32 -17
-55 -39 -23 -21 -44 -34 -47 -30 -11 18 -42 8 -75 -24 -45 -45 -87 -61 -122
-48 -19 7 -27 18 -27 35 0 26 22 50 35 38 5 -4 5 2 1 13 -18 46 -25 73 -31
118 -6 42 -11 51 -48 74 -23 15 -59 33 -80 41 -37 15 -39 14 -79 -14 -49 -34
-107 -126 -108 -170 0 -34 47 -112 87 -144 32 -25 172 -70 217 -70 49 0 236
64 351 120 103 50 210 130 257 192 53 69 108 277 108 406 0 37 7 126 14 197
17 146 20 526 6 625 -10 68 -6 81 53 185 20 37 26 40 72 45 64 7 145 39 145
57 0 25 -48 33 -263 43 -203 10 -253 8 -429 -17 -20 -3 -61 2 -91 11 -89 26
-114 22 -134 -19z"/>
<path d="M7988 1918 c-51 -9 -93 -38 -93 -64 0 -17 11 -19 127 -24 136 -5 167
-17 195 -71 43 -83 -23 -351 -172 -700 -70 -163 -204 -435 -237 -482 -19 -26
-21 -27 -38 -12 -26 23 -37 57 -55 165 -9 55 -45 181 -85 300 -38 113 -88 265
-110 339 -42 143 -78 211 -109 211 -27 0 -77 -45 -107 -96 -14 -24 -36 -89
-49 -145 -13 -55 -30 -108 -38 -117 -25 -29 -37 -60 -48 -119 -14 -74 -57
-168 -147 -316 -39 -64 -73 -130 -77 -146 -3 -16 -15 -37 -25 -46 -19 -17 -20
-15 -45 41 -15 33 -30 77 -35 99 -24 110 -91 323 -117 373 -17 31 -33 75 -37
97 -4 21 -16 56 -27 76 -10 21 -23 59 -29 85 -6 26 -26 72 -45 103 -19 31 -37
69 -41 86 -4 16 -16 44 -27 63 -26 44 -28 129 -4 165 16 25 22 27 97 27 76 0
110 12 110 40 0 20 -61 40 -118 40 -33 0 -84 5 -113 11 -76 15 -576 14 -595
-2 -17 -14 -18 -43 -1 -56 15 -12 142 -43 177 -43 33 -1 60 -22 60 -48 0 -11
20 -50 45 -86 25 -37 45 -71 45 -77 0 -40 152 -464 298 -829 57 -143 97 -261
111 -325 11 -55 32 -123 46 -151 14 -28 25 -64 25 -81 0 -30 72 -151 96 -160
17 -6 101 49 113 75 6 13 11 36 11 51 0 86 160 533 262 731 104 203 110 208
135 130 97 -303 257 -774 272 -803 11 -21 23 -57 26 -80 7 -43 47 -97 72 -97
8 0 31 9 52 20 36 18 40 26 66 107 82 264 528 1328 602 1435 14 21 28 57 30
81 4 35 11 47 40 67 89 62 84 61 159 54 77 -7 138 6 148 32 8 20 -9 51 -36 65
-24 13 -688 19 -760 7z"/>
<path d="M4379 1017 c-24 -13 -57 -31 -74 -40 -16 -9 -49 -19 -73 -23 -33 -5
-46 -13 -57 -34 -13 -25 -12 -29 5 -45 18 -16 24 -17 61 -5 75 25 74 26 71
-241 -2 -179 -6 -240 -17 -262 -11 -22 -12 -34 -4 -49 8 -15 7 -31 -6 -64 -17
-44 -17 -44 -66 -44 -62 0 -89 -14 -89 -44 0 -23 2 -23 158 -29 195 -8 330 -9
360 -1 55 15 3 74 -66 74 -23 0 -45 6 -52 15 -9 11 -13 83 -16 252 -3 266 -1
293 30 324 38 38 184 126 220 133 40 8 89 -12 106 -44 21 -40 32 -225 25 -440
-7 -233 -8 -240 -64 -240 -45 1 -91 -12 -91 -25 0 -34 79 -62 126 -45 18 7 54
6 122 -5 63 -11 122 -14 167 -10 99 9 105 12 105 45 0 34 -5 38 -67 53 l-47
12 3 57 c1 35 -3 67 -13 85 -11 22 -12 39 -6 68 5 21 10 125 11 231 l2 192
-29 47 c-56 89 -156 132 -288 123 -96 -7 -168 -43 -219 -108 -34 -44 -79 -72
-93 -58 -2 3 3 24 11 48 22 62 19 78 -17 100 -43 26 -75 25 -129 -3z"/>
<path d="M14435 1029 c-126 -19 -305 -137 -305 -202 0 -16 -8 -30 -20 -37 -11
-6 -30 -30 -42 -53 -21 -38 -23 -55 -22 -178 l2 -136 64 -109 64 -109 74 -37
c105 -52 215 -80 325 -80 84 -1 193 20 220 42 6 4 30 13 54 20 24 6 54 22 67
35 65 65 -16 104 -106 52 -34 -20 -68 -28 -140 -36 -95 -9 -95 -9 -152 21 -71
38 -134 91 -154 130 -22 42 -64 186 -64 218 0 14 6 34 13 44 11 16 41 18 322
20 l310 3 13 28 c20 38 9 79 -43 167 -48 80 -83 113 -163 153 -83 42 -213 60
-317 44z m152 -128 c37 -24 69 -53 79 -72 49 -96 32 -124 -68 -117 -35 3 -105
1 -157 -4 -119 -13 -125 -8 -105 85 18 87 22 95 63 122 56 39 111 34 188 -14z"/>
<path d="M2005 1016 c-22 -7 -67 -27 -101 -44 -33 -16 -84 -38 -112 -47 -29
-10 -65 -30 -80 -45 -67 -67 -102 -107 -102 -117 0 -6 -11 -35 -25 -65 -19
-41 -25 -69 -25 -124 0 -133 51 -244 162 -350 89 -86 112 -96 256 -114 132
-17 291 15 372 75 19 14 41 25 50 25 9 0 50 35 92 78 86 89 93 104 107 257 7
77 6 106 -5 130 -7 16 -18 55 -24 85 -18 94 -36 113 -167 178 -65 33 -138 64
-163 70 -79 19 -192 23 -235 8z m99 -113 c152 -35 192 -102 222 -366 l15 -137
-32 -39 c-21 -26 -29 -46 -25 -58 10 -30 -21 -92 -50 -103 -37 -15 -113 -12
-171 5 -36 11 -62 28 -91 59 -80 87 -108 173 -116 359 -6 140 -6 142 55 232
47 69 74 76 193 48z"/>
<path d="M12191 1015 c-101 -18 -157 -41 -203 -83 -46 -41 -53 -89 -15 -96
103 -19 102 -18 105 -59 2 -21 -4 -89 -14 -150 -18 -119 -20 -316 -3 -378 13
-53 42 -84 118 -129 81 -48 131 -59 238 -49 96 8 144 31 215 105 33 33 51 45
63 40 14 -5 16 -14 10 -52 -9 -63 3 -74 80 -74 45 0 89 9 152 31 89 31 117 48
135 82 12 24 -13 53 -52 62 -53 12 -55 18 -58 284 -4 368 -4 368 8 390 24 47
-45 91 -144 91 -49 0 -56 -3 -107 -50 -30 -27 -57 -50 -62 -50 -4 0 4 -17 18
-38 14 -21 30 -65 36 -97 15 -79 4 -404 -15 -449 -17 -40 -72 -95 -138 -137
-58 -37 -86 -35 -160 12 -49 32 -58 52 -57 124 1 17 -7 57 -16 90 -22 77 -11
163 45 358 44 153 44 154 -15 206 -40 35 -53 36 -164 16z"/>
<path d="M13740 997 c-14 -7 -43 -30 -65 -50 -22 -20 -43 -37 -47 -37 -4 0
-10 -9 -13 -20 -9 -29 -32 -25 -38 8 -8 35 -43 91 -62 98 -18 7 -194 -50 -268
-86 -45 -22 -52 -29 -52 -54 0 -24 5 -31 30 -38 37 -10 75 -2 75 16 0 8 6 16
13 18 36 14 37 3 37 -313 l0 -308 -52 -15 c-29 -8 -72 -20 -94 -26 -23 -5 -45
-17 -48 -26 -22 -58 10 -78 102 -63 39 6 153 9 277 7 l209 -3 11 29 c14 41
-19 66 -89 66 -83 0 -80 -7 -87 222 -3 125 -10 219 -18 245 -13 39 -12 44 13
85 38 63 90 118 112 118 11 0 41 -22 67 -50 50 -53 60 -56 120 -39 52 14 87
55 87 100 0 59 -17 94 -56 112 -41 20 -129 22 -164 4z"/>
<path d="M8985 477 c-16 -8 -50 -36 -73 -63 -44 -49 -44 -49 -39 -111 5 -71
31 -128 71 -157 23 -18 42 -21 121 -21 107 0 121 7 161 88 23 45 24 52 13 110
-23 132 -48 158 -151 164 -48 2 -83 -1 -103 -10z"/>
</g>
</svg>
