<?xml version="1.0" standalone="no"?>
<!DOCTYPE svg PUBLIC "-//W3C//DTD SVG 20010904//EN"
 "http://www.w3.org/TR/2001/REC-SVG-20010904/DTD/svg10.dtd">
<svg version="1.0" xmlns="http://www.w3.org/2000/svg"
 width="1755.000000pt" height="324.000000pt" viewBox="0 0 1755.000000 324.000000"
 preserveAspectRatio="xMidYMid meet">

<g transform="translate(0.000000,324.000000) scale(0.100000,-0.100000)"
fill="#f0e9db" stroke="none">
<path d="M12030 3165 c-41 -8 -139 -30 -217 -49 -79 -19 -170 -38 -203 -42
-33 -4 -60 -11 -60 -15 0 -5 15 -18 33 -29 26 -16 50 -20 128 -20 107 0 115
-4 129 -66 7 -29 3 -59 -16 -128 -13 -50 -38 -169 -54 -265 -17 -98 -45 -219
-65 -278 -20 -60 -52 -198 -75 -326 -22 -122 -47 -252 -55 -288 -33 -151 -128
-376 -156 -372 -8 1 -48 14 -89 30 -70 26 -86 28 -220 28 -124 0 -156 -3 -220
-23 -143 -46 -279 -129 -364 -223 -93 -103 -170 -264 -203 -423 l-17 -85 43
-131 c50 -150 86 -205 175 -264 75 -49 207 -98 271 -99 101 -1 334 101 366
160 7 13 16 23 21 23 15 0 8 -27 -17 -64 -14 -21 -23 -41 -20 -46 12 -19 142
-54 197 -53 73 1 160 40 243 109 33 28 88 67 122 87 81 49 113 88 113 136 0
21 -3 40 -6 44 -11 10 -55 -12 -103 -52 -60 -50 -111 -81 -135 -81 -18 0 -19
6 -13 92 8 110 44 251 125 489 64 190 86 275 101 389 12 92 121 574 202 890
117 462 138 536 185 645 42 96 48 119 48 182 2 126 -34 147 -194 118z m-783
-1931 c12 -8 27 -22 32 -33 6 -10 24 -21 40 -24 25 -5 31 -14 44 -56 14 -48
13 -61 -19 -248 -48 -287 -95 -411 -198 -516 -51 -52 -102 -81 -183 -102 -95
-25 -101 -23 -175 57 l-68 72 0 66 c0 37 -7 89 -15 117 -12 39 -13 58 -4 80 6
15 26 87 45 158 61 229 114 335 202 398 36 26 58 33 135 42 99 13 129 10 164
-11z"/>
<path d="M781 3090 c-41 -10 -85 -41 -89 -64 -6 -27 78 -101 141 -124 98 -37
220 -54 354 -50 68 1 123 0 123 -4 0 -4 -47 -204 -105 -445 -136 -565 -300
-1246 -335 -1393 -116 -483 -133 -549 -176 -653 -25 -62 -49 -115 -52 -118 -4
-3 -68 -3 -142 1 -142 8 -330 -1 -398 -19 -37 -10 -41 -15 -47 -52 -11 -62 4
-73 90 -65 38 3 405 10 815 16 899 11 1110 22 1475 82 127 20 133 22 280 100
186 99 296 171 366 241 76 75 237 319 308 467 107 222 161 421 182 673 25 308
-42 671 -160 862 -196 318 -515 492 -981 535 -143 14 -629 14 -855 0 -244 -14
-474 -12 -580 5 -97 16 -161 18 -214 5z m1518 -150 c321 -33 526 -163 653
-415 55 -109 70 -179 75 -355 6 -176 -5 -278 -52 -515 -32 -164 -52 -286 -61
-374 -3 -41 -12 -81 -20 -88 -17 -18 -34 -78 -34 -123 0 -41 -27 -96 -86 -172
-22 -29 -57 -81 -78 -116 -56 -93 -110 -157 -145 -172 -26 -10 -31 -18 -31
-45 0 -28 -10 -43 -65 -93 -81 -74 -182 -124 -316 -157 -131 -32 -280 -43
-609 -47 -260 -3 -265 -3 -261 17 1 11 7 65 11 120 9 107 26 198 144 730 151
685 349 1512 406 1697 l30 96 63 6 c175 17 255 18 376 6z"/>
<path d="M15993 1720 c-13 -5 -56 -31 -96 -57 -40 -26 -81 -53 -92 -59 -11 -6
-35 -40 -54 -75 -30 -58 -33 -70 -28 -124 3 -32 1 -67 -4 -77 -14 -26 -56 -45
-119 -52 -86 -11 -112 -24 -108 -55 3 -26 4 -26 85 -26 49 0 86 -5 93 -12 10
-9 6 -34 -14 -110 -14 -54 -41 -175 -60 -268 -48 -231 -81 -353 -115 -430 -33
-73 -33 -104 3 -176 27 -52 63 -75 159 -100 186 -49 385 1 443 112 20 39 18
72 -7 103 -32 41 -61 34 -116 -29 -26 -30 -55 -55 -64 -55 -8 0 -33 14 -55 30
l-39 31 27 142 c15 78 46 247 68 376 55 313 58 326 85 355 23 25 27 26 154 26
123 0 131 1 159 25 39 33 44 57 20 96 l-19 32 -105 -6 c-108 -6 -150 1 -160
28 -3 8 9 63 27 122 37 120 44 217 19 233 -19 12 -58 12 -87 0z"/>
<path d="M5609 1369 c-97 -22 -177 -74 -311 -202 l-48 -44 0 -79 c0 -127 23
-165 227 -380 121 -128 159 -183 169 -245 5 -30 0 -44 -32 -90 -115 -164 -175
-185 -297 -102 -76 52 -97 76 -97 109 0 12 -10 25 -25 32 -31 14 -50 52 -65
132 -18 91 -34 120 -68 120 -15 0 -32 -4 -39 -8 -30 -19 -48 -114 -66 -346 -2
-25 5 -32 58 -62 134 -76 339 -115 499 -95 149 18 148 18 266 162 58 71 110
142 117 157 18 40 16 153 -3 198 -34 81 -103 162 -259 301 -106 94 -111 105
-96 190 7 38 24 90 39 117 l27 49 65 2 c53 2 73 -2 108 -22 59 -34 73 -60 93
-179 17 -106 32 -137 69 -147 15 -4 20 2 26 27 4 17 21 69 39 116 18 47 36
110 40 140 6 50 4 58 -18 82 -33 36 -83 48 -202 48 -68 1 -108 5 -125 15 -28
16 -40 17 -91 4z"/>
<path d="M17009 1369 c-74 -17 -149 -59 -225 -125 -138 -119 -134 -113 -134
-201 1 -124 26 -167 221 -372 127 -134 165 -189 175 -252 5 -30 0 -44 -32 -90
-115 -164 -175 -185 -297 -102 -76 52 -97 76 -97 109 0 12 -10 25 -25 32 -31
14 -50 52 -65 132 -18 91 -34 120 -68 120 -15 0 -32 -4 -39 -8 -30 -19 -48
-114 -66 -346 -2 -25 5 -32 58 -62 136 -77 338 -115 503 -95 144 18 147 19
266 167 58 72 110 144 116 158 15 40 12 136 -5 187 -23 67 -102 164 -214 264
-56 49 -114 105 -128 124 -26 34 -26 35 -15 104 7 39 25 93 40 120 l27 50 68
2 c59 2 73 -1 113 -27 54 -34 68 -63 84 -175 13 -88 36 -137 68 -145 17 -5 22
0 28 26 4 17 22 70 40 118 19 47 36 110 40 140 5 47 3 56 -19 80 -33 36 -83
48 -202 48 -68 1 -108 5 -125 15 -28 16 -40 17 -91 4z"/>
<path d="M4470 1344 c-117 -35 -213 -83 -309 -154 -93 -69 -297 -262 -315
-300 -7 -14 -21 -58 -31 -99 -11 -47 -27 -85 -45 -105 -40 -46 -53 -97 -48
-186 3 -59 12 -92 36 -144 47 -101 115 -181 178 -212 148 -72 381 -21 612 133
107 72 142 112 142 162 0 21 -3 40 -6 44 -9 9 -93 -36 -150 -80 -118 -94 -128
-98 -234 -97 -85 0 -104 4 -154 28 -94 46 -153 163 -130 260 10 43 15 47 92
69 29 9 110 47 180 86 70 38 152 77 183 85 65 17 195 84 256 133 59 47 93 120
93 200 0 98 -35 147 -125 178 -83 28 -132 28 -225 -1z m85 -117 c49 -92 -51
-259 -213 -357 -63 -38 -249 -116 -258 -108 -3 3 2 36 10 74 40 193 158 334
336 402 81 31 103 29 125 -11z"/>
<path d="M7990 1344 c-117 -35 -213 -83 -309 -154 -93 -69 -297 -262 -315
-300 -7 -14 -21 -58 -31 -99 -11 -47 -27 -85 -45 -105 -40 -46 -53 -97 -48
-186 3 -59 12 -92 36 -144 47 -101 115 -181 178 -212 148 -72 381 -21 612 133
107 72 142 112 142 162 0 21 -3 40 -6 44 -9 9 -93 -36 -150 -80 -118 -94 -128
-98 -234 -97 -85 0 -104 4 -154 28 -94 46 -153 163 -130 260 10 43 15 47 92
69 29 9 110 47 180 86 70 38 152 77 183 85 65 17 195 84 256 133 59 47 93 120
93 200 0 98 -35 147 -125 178 -83 28 -132 28 -225 -1z m85 -117 c49 -92 -51
-259 -213 -357 -63 -38 -249 -116 -258 -108 -3 3 2 36 10 74 40 193 158 334
336 402 81 31 103 29 125 -11z"/>
<path d="M9691 1349 c-135 -26 -252 -91 -418 -230 -45 -38 -84 -69 -87 -69 -3
0 -10 8 -15 19 -8 14 -3 32 21 79 30 57 31 63 17 88 -20 38 -91 81 -158 95
-61 13 -145 4 -276 -29 -59 -15 -71 -22 -73 -41 -5 -32 13 -41 85 -41 34 0 73
-4 87 -10 26 -9 26 -11 26 -111 0 -125 -28 -247 -107 -462 -31 -84 -68 -199
-83 -255 -19 -72 -37 -115 -58 -140 -26 -34 -34 -37 -82 -38 -57 -2 -98 -29
-87 -58 6 -14 36 -16 237 -16 l230 0 31 47 c46 74 77 185 89 329 28 312 51
385 155 489 72 72 162 127 294 180 104 41 113 40 143 -15 28 -54 23 -116 -23
-257 -34 -104 -40 -135 -35 -173 5 -37 1 -59 -15 -96 -41 -95 -78 -214 -94
-308 -14 -87 -14 -98 0 -126 23 -44 57 -62 130 -68 57 -4 75 -1 147 28 184 73
246 115 291 198 l27 50 -26 21 c-43 34 -66 27 -133 -39 -51 -50 -67 -60 -95
-60 -19 0 -37 4 -40 8 -2 4 13 60 35 123 22 64 57 207 79 318 22 111 49 238
60 281 11 43 20 92 20 110 0 48 -35 106 -91 150 -46 37 -56 40 -107 39 -32 -1
-77 -5 -101 -10z"/>
<path d="M14767 1344 c-124 -27 -230 -87 -393 -225 -45 -38 -84 -69 -87 -69
-4 0 -11 8 -16 19 -8 14 -3 32 21 79 30 57 31 63 17 88 -20 38 -91 81 -158 95
-61 13 -145 4 -276 -29 -59 -15 -71 -22 -73 -41 -5 -32 13 -41 85 -41 34 0 73
-4 87 -10 26 -9 26 -11 26 -110 0 -126 -28 -247 -106 -460 -31 -85 -69 -202
-84 -258 -19 -72 -37 -115 -58 -140 -26 -34 -34 -37 -82 -38 -57 -2 -98 -29
-87 -58 6 -14 36 -16 237 -16 l230 0 31 47 c46 74 77 185 89 329 16 181 36
303 58 355 43 98 140 193 272 261 62 33 201 88 220 88 5 0 21 -17 35 -37 37
-56 34 -117 -16 -270 -34 -104 -40 -135 -35 -173 5 -37 1 -58 -18 -102 -36
-81 -83 -242 -96 -326 -8 -61 -8 -77 5 -102 23 -44 57 -62 129 -67 70 -6 104
4 256 74 102 47 147 84 183 151 l27 50 -26 21 c-43 34 -67 27 -135 -39 -50
-49 -68 -60 -95 -60 -18 0 -35 4 -38 8 -2 4 13 60 35 123 22 64 57 207 79 318
22 111 50 239 61 284 12 45 21 95 20 110 -3 57 -51 124 -121 170 -30 21 -109
21 -203 1z"/>
<path d="M13065 1320 c-22 -5 -70 -9 -107 -9 -141 -2 -393 -126 -582 -286
-166 -141 -299 -371 -313 -541 -10 -116 41 -218 155 -311 51 -42 55 -43 126
-43 87 0 212 30 272 65 24 14 62 48 85 75 31 36 62 59 117 85 41 20 77 33 80
30 3 -3 0 -27 -8 -53 -17 -62 -24 -116 -16 -146 7 -27 39 -40 119 -50 119 -14
368 124 427 238 13 26 13 29 -5 42 -31 23 -49 17 -120 -41 -36 -30 -73 -55
-81 -55 -20 0 -28 43 -21 121 4 50 31 144 97 338 76 226 92 282 96 352 6 81 5
85 -22 121 -16 21 -45 45 -64 54 -40 20 -173 28 -235 14z m-92 -149 c19 -21
40 -55 47 -76 19 -56 8 -160 -23 -230 -15 -33 -36 -104 -47 -159 -33 -163 -65
-218 -155 -263 -27 -14 -76 -47 -110 -74 -118 -97 -192 -114 -241 -56 -43 50
-57 94 -50 153 8 66 24 104 79 184 25 36 75 126 112 200 111 222 183 317 261
345 65 23 88 19 127 -24z"/>
<path d="M6830 1306 c-14 -7 -52 -16 -86 -19 -73 -6 -131 -34 -241 -116 -45
-33 -99 -69 -121 -80 -32 -17 -54 -43 -113 -138 -154 -250 -216 -399 -226
-544 -7 -99 6 -136 74 -212 31 -34 62 -72 70 -84 34 -51 167 -68 303 -38 36 8
82 14 102 15 20 0 41 6 45 13 17 28 71 58 140 77 41 11 92 34 117 53 25 17 66
47 91 65 25 18 54 49 63 69 16 33 16 35 -3 49 -57 42 -99 27 -210 -76 -62 -57
-98 -82 -143 -99 -88 -33 -123 -20 -282 108 -24 19 -25 25 -24 118 1 86 6 111
38 203 20 58 41 137 46 175 21 147 102 245 266 321 52 25 99 42 104 39 5 -3
14 -22 21 -43 47 -145 117 -193 215 -146 63 30 93 136 58 209 -18 38 -53 57
-149 79 -83 19 -121 20 -155 2z"/>
</g>
</svg>
