<?xml version="1.0" standalone="no"?>
<!DOCTYPE svg PUBLIC "-//W3C//DTD SVG 20010904//EN"
 "http://www.w3.org/TR/2001/REC-SVG-20010904/DTD/svg10.dtd">
<svg version="1.0" xmlns="http://www.w3.org/2000/svg"
 width="1651.000000pt" height="479.000000pt" viewBox="0 0 1651.000000 479.000000"
 preserveAspectRatio="xMidYMid meet">

<g transform="translate(0.000000,479.000000) scale(0.100000,-0.100000)"
fill="#f0e9db" stroke="none">
<path d="M1280 4753 c-8 -3 -26 -16 -40 -29 -24 -22 -34 -24 -300 -35 -344
-14 -637 -8 -699 15 -38 15 -46 15 -65 2 -12 -7 -28 -34 -35 -57 -7 -24 -22
-66 -32 -93 -26 -66 -26 -126 0 -126 10 0 32 16 48 35 15 19 41 51 56 70 16
19 53 46 84 61 48 24 70 28 167 31 162 5 154 21 112 -227 -19 -113 -58 -317
-86 -455 -28 -137 -62 -307 -75 -377 -13 -69 -28 -136 -34 -147 -22 -40 -62
-51 -184 -51 -98 0 -116 -2 -121 -17 -4 -9 0 -23 8 -31 13 -13 29 -13 118 -3
64 8 176 11 298 8 107 -2 206 0 219 5 15 5 45 4 78 -2 62 -13 93 -6 93 21 0
28 -36 38 -114 32 -78 -7 -108 5 -130 51 -17 36 -16 43 59 425 24 124 47 257
51 296 4 38 13 85 21 104 8 19 21 93 29 165 8 72 21 147 30 167 l16 37 82 7
c124 10 202 -12 264 -76 30 -30 32 -38 32 -101 0 -65 1 -68 24 -68 20 0 24 6
29 45 7 44 54 196 78 248 11 25 10 30 -7 46 -22 22 -53 32 -74 24z"/>
<path d="M6993 4722 c-90 -21 -110 -28 -101 -39 6 -7 31 -13 60 -13 60 0 66
-12 49 -89 -6 -31 -18 -92 -26 -136 -8 -44 -21 -100 -29 -123 -8 -23 -25 -95
-36 -159 -24 -135 -55 -240 -81 -274 -15 -21 -20 -22 -45 -10 -15 6 -55 15
-89 18 -120 11 -257 -53 -325 -152 -36 -53 -70 -144 -70 -190 0 -39 27 -121
51 -156 20 -28 98 -74 145 -83 39 -9 126 17 171 50 33 25 55 32 35 12 -7 -7
-12 -17 -12 -24 0 -14 52 -34 89 -34 26 0 88 31 126 63 11 9 36 27 55 39 23
16 36 33 38 51 4 35 -6 34 -53 -3 -21 -16 -45 -30 -53 -30 -24 0 -10 85 41
250 25 80 53 188 62 240 26 142 141 598 170 668 25 61 31 105 19 136 -9 22
-57 19 -191 -12z m-253 -907 c7 -8 19 -15 26 -15 24 0 28 -53 11 -155 -19
-113 -62 -213 -105 -244 -15 -10 -46 -25 -70 -32 -42 -12 -43 -12 -77 21 -27
26 -35 43 -36 69 0 20 -4 44 -8 55 -8 20 34 179 62 232 30 57 72 84 132 84 34
0 57 -5 65 -15z"/>
<path d="M8395 4722 c-60 -14 -112 -27 -115 -29 -12 -10 30 -23 73 -23 58 0
65 -12 48 -89 -6 -31 -18 -92 -26 -136 -8 -44 -21 -100 -29 -123 -8 -23 -24
-95 -36 -159 -22 -124 -65 -266 -86 -284 -9 -7 -30 -5 -70 7 -134 39 -303 -23
-384 -141 -36 -53 -70 -144 -70 -190 0 -36 26 -119 48 -153 18 -28 82 -66 138
-82 36 -11 49 -10 105 10 35 12 73 31 85 41 22 21 46 27 26 7 -22 -22 -13 -37
28 -49 52 -16 98 -2 170 50 30 22 65 47 78 56 21 15 32 65 13 65 -4 0 -25 -13
-46 -30 -88 -70 -88 -29 -5 240 21 69 46 168 56 220 25 141 140 597 169 668
25 61 31 105 19 136 -9 23 -58 19 -189 -12z m-255 -907 c7 -8 19 -15 26 -15
24 0 28 -52 11 -154 -27 -170 -87 -261 -185 -281 -30 -6 -38 -3 -68 26 -26 25
-34 42 -35 68 0 20 -4 44 -8 55 -8 20 34 179 62 232 30 57 72 84 132 84 34 0
57 -5 65 -15z"/>
<path d="M9715 4730 c-22 -5 -139 -9 -260 -9 -121 -1 -235 -1 -253 -1 -42 -1
-82 -16 -82 -32 0 -25 16 -34 79 -47 93 -18 140 -39 135 -59 -2 -9 -51 -243
-109 -520 -108 -513 -116 -545 -134 -557 -6 -3 -11 -19 -11 -35 0 -23 -9 -35
-45 -60 -43 -29 -46 -30 -69 -14 -21 13 -31 14 -61 4 -35 -11 -42 -24 -27 -47
15 -24 194 -32 582 -26 l387 6 18 -26 c17 -27 52 -35 88 -21 8 3 43 68 77 145
61 137 62 140 48 177 -21 56 -40 51 -84 -19 -61 -98 -111 -144 -174 -164 -62
-18 -409 -42 -455 -31 l-28 7 6 87 c6 104 47 308 126 641 33 135 69 295 80
354 12 60 26 117 32 128 16 32 55 40 145 33 69 -6 88 -4 109 10 29 19 34 62 8
69 -42 12 -91 14 -128 7z"/>
<path d="M1745 4704 c-33 -13 -73 -26 -90 -27 -31 -2 -45 -13 -45 -35 0 -9 17
-11 58 -10 l57 3 -2 -40 c-3 -70 -20 -169 -37 -215 -10 -25 -35 -130 -57 -235
-21 -104 -51 -237 -65 -295 -14 -58 -45 -185 -69 -284 -24 -98 -51 -189 -61
-203 -14 -22 -21 -24 -55 -19 -31 5 -40 3 -48 -12 -9 -17 -4 -18 92 -17 175 3
162 0 175 43 6 20 18 81 26 134 27 169 66 241 150 279 58 26 107 25 135 -5 22
-23 22 -24 6 -87 -9 -35 -33 -116 -52 -179 -40 -128 -42 -144 -16 -172 15 -17
28 -19 83 -16 53 3 73 9 105 33 47 35 55 44 55 68 0 15 -5 15 -51 -9 -42 -21
-53 -23 -60 -12 -5 7 -7 18 -5 23 4 11 25 83 60 205 34 118 39 151 27 183 -12
31 -62 57 -108 57 -41 -1 -156 -44 -214 -80 -27 -18 -52 -30 -55 -27 -3 3 8
47 24 99 42 132 83 286 147 563 31 132 58 248 61 257 8 26 -34 58 -75 58 -20
-1 -63 -12 -96 -26z"/>
<path d="M15513 4705 c-34 -15 -92 -69 -138 -130 -17 -21 -42 -51 -57 -67 -17
-18 -30 -47 -38 -85 -6 -32 -21 -80 -34 -108 -31 -70 -47 -114 -56 -158 -4
-21 -11 -41 -15 -45 -3 -4 -32 -7 -63 -7 -50 0 -57 -2 -57 -20 0 -17 6 -20 48
-18 42 1 47 -1 47 -21 0 -50 -23 -143 -43 -176 -12 -19 -21 -39 -19 -44 5 -15
-40 -200 -53 -222 -20 -32 -33 -89 -46 -199 -6 -55 -18 -115 -25 -134 -8 -19
-12 -43 -8 -53 3 -11 -7 -46 -25 -84 -17 -37 -31 -76 -31 -89 0 -12 -9 -30
-20 -40 -11 -10 -33 -42 -49 -71 -17 -29 -35 -55 -42 -59 -6 -4 -28 9 -50 31
-35 34 -41 36 -64 26 -35 -16 -62 -74 -49 -110 12 -35 61 -41 133 -13 104 39
183 121 249 259 36 76 140 368 171 482 10 36 41 136 70 223 29 87 55 187 58
223 3 35 11 65 17 65 6 1 38 0 72 -1 46 -1 65 3 78 15 27 27 3 45 -60 45 -68
0 -81 18 -58 82 8 23 26 108 40 188 28 169 35 192 70 237 18 24 33 33 47 31
33 -5 32 -41 -2 -108 -33 -63 -39 -100 -18 -100 22 0 119 102 138 145 27 59
24 82 -13 105 -38 23 -61 24 -105 5z"/>
<path d="M3470 4698 c-31 -11 -32 -27 -5 -52 34 -32 106 -51 193 -51 52 0 72
-4 72 -13 0 -7 -15 -75 -34 -150 -19 -75 -48 -195 -65 -267 -93 -395 -172
-706 -190 -746 l-21 -46 -87 4 c-49 2 -108 0 -133 -4 -38 -7 -45 -12 -48 -34
l-3 -25 333 3 c369 4 632 16 759 37 66 11 102 24 169 61 118 66 154 96 211
181 70 104 114 196 141 295 30 109 32 327 4 428 -40 147 -125 251 -257 314
-134 65 -175 70 -622 71 -219 0 -406 -2 -417 -6z m872 -116 c78 -38 120 -82
162 -172 29 -61 31 -72 30 -175 -1 -64 -9 -144 -19 -190 -9 -44 -23 -116 -30
-160 -22 -126 -31 -163 -49 -187 -9 -13 -35 -51 -57 -86 -23 -34 -50 -67 -60
-73 -10 -5 -19 -17 -19 -27 0 -24 -63 -72 -134 -100 -52 -21 -84 -25 -249 -33
-104 -5 -192 -7 -196 -5 -14 9 7 141 59 376 65 296 165 714 191 804 l20 68
143 -3 c136 -4 144 -5 208 -37z"/>
<path d="M5100 4352 c-46 -23 -59 -59 -40 -115 14 -39 18 -43 63 -51 43 -8 50
-7 72 14 28 27 49 88 39 116 -20 55 -70 69 -134 36z"/>
<path d="M6110 4352 c-46 -23 -59 -59 -40 -115 13 -36 20 -43 53 -50 68 -16
119 27 121 102 2 74 -57 102 -134 63z"/>
<path d="M10350 4352 c-46 -23 -59 -59 -40 -115 13 -36 20 -43 53 -50 68 -16
119 27 121 102 2 74 -57 102 -134 63z"/>
<path d="M13165 3906 c-16 -7 -41 -25 -53 -39 -23 -25 -25 -25 -65 -10 -23 8
-83 17 -132 20 -126 8 -177 -14 -246 -106 -68 -91 -66 -122 14 -208 l30 -32
-32 -49 c-40 -63 -40 -95 2 -137 23 -23 56 -40 117 -58 93 -29 129 -56 149
-116 25 -77 3 -163 -50 -192 -25 -13 -154 -32 -208 -31 -89 2 -193 68 -231
147 l-22 45 31 54 c31 53 31 55 11 61 -29 9 -61 -14 -85 -61 -10 -22 -27 -51
-37 -66 -25 -36 -23 -70 8 -133 53 -112 146 -159 319 -160 124 0 172 20 260
110 87 88 135 175 135 243 0 76 -40 145 -102 178 -15 8 -53 14 -85 14 -105 0
-214 78 -154 109 15 9 30 7 63 -6 56 -22 153 -21 197 2 38 19 80 61 118 117
26 39 30 71 18 159 l-7 51 41 -7 c54 -9 91 13 91 54 0 47 -45 69 -95 47z
m-203 -88 c41 -33 50 -147 17 -215 -60 -124 -182 -124 -196 1 -6 53 29 178 59
208 21 21 96 25 120 6z"/>
<path d="M11019 3890 c-64 -11 -105 -32 -178 -90 -33 -28 -63 -50 -66 -50 -9
0 -5 39 5 45 19 12 10 43 -17 65 -25 20 -36 22 -103 17 -85 -6 -110 -13 -110
-32 0 -9 15 -15 42 -17 35 -3 43 -7 49 -29 10 -38 -7 -128 -42 -227 -17 -48
-37 -107 -43 -132 -17 -69 -32 -88 -68 -92 -17 -2 -33 -9 -36 -16 -3 -10 21
-12 110 -10 l113 3 19 39 c10 21 23 77 28 125 5 47 13 106 19 131 18 80 81
140 187 180 l51 20 16 -22 c20 -29 19 -47 -5 -115 -11 -32 -20 -71 -20 -88 0
-16 -9 -53 -19 -80 -11 -28 -24 -74 -29 -103 -12 -68 5 -94 64 -95 88 -2 235
100 202 140 -16 20 -32 16 -63 -17 -16 -16 -37 -30 -47 -30 -22 0 -21 -2 -4
49 19 52 76 319 76 351 0 14 -6 32 -13 40 -14 18 -59 51 -67 49 -3 -1 -26 -5
-51 -9z"/>
<path d="M14451 3884 c-127 -45 -271 -198 -271 -288 0 -75 26 -137 83 -194
112 -114 190 -121 372 -30 44 21 91 49 103 61 38 35 62 92 74 176 11 72 10 81
-10 122 -54 110 -140 169 -246 169 -34 -1 -81 -8 -105 -16z m145 -63 c31 -14
45 -28 57 -60 22 -53 21 -72 -4 -189 -23 -103 -49 -167 -87 -207 -46 -50 -171
-24 -198 41 -20 47 -17 104 10 220 26 114 36 136 79 182 37 38 79 42 143 13z"/>
<path d="M2540 3848 c-30 -12 -72 -32 -92 -45 -57 -35 -178 -153 -178 -173 0
-9 -12 -39 -26 -66 -37 -69 -31 -140 15 -208 40 -58 86 -81 151 -73 108 13
252 96 258 150 3 22 0 26 -15 21 -10 -4 -34 -19 -53 -34 -57 -44 -80 -53 -126
-47 -56 6 -92 30 -110 73 -15 36 -10 84 10 84 6 0 52 20 101 44 50 24 114 55
143 67 73 32 112 77 112 132 0 53 -7 62 -53 82 -47 20 -70 18 -137 -7z m69
-26 c13 -24 -10 -87 -45 -123 -28 -30 -136 -89 -161 -89 -17 0 -17 16 3 72 18
54 73 113 129 139 50 23 62 23 74 1z"/>
<path d="M4953 3852 c-61 -17 -72 -42 -19 -42 18 0 38 -6 45 -13 15 -19 0
-101 -44 -227 -71 -204 -66 -260 21 -260 25 0 61 7 80 16 39 18 117 102 108
115 -9 16 -32 10 -62 -16 -62 -52 -65 -29 -21 135 17 63 41 140 54 170 37 85
38 97 16 119 -25 25 -98 27 -178 3z"/>
<path d="M5323 3850 c-48 -29 -43 -48 15 -52 l47 -3 -1 -55 c-2 -65 -38 -192
-65 -230 -16 -22 -19 -39 -17 -101 l3 -74 45 -23 c102 -52 229 20 405 229 67
79 78 97 87 148 22 117 -12 172 -110 179 l-57 4 -37 -45 c-44 -54 -36 -75 19
-49 34 16 35 16 54 -7 31 -38 24 -84 -28 -183 -58 -113 -138 -203 -189 -213
-20 -3 -40 -3 -45 2 -4 4 14 100 42 212 54 224 56 242 33 265 -24 25 -159 22
-201 -4z"/>
<path d="M5963 3853 c-61 -18 -72 -43 -19 -43 18 0 38 -6 45 -13 15 -19 -1
-102 -45 -227 -69 -198 -64 -260 22 -260 25 0 61 7 80 16 39 18 117 102 108
115 -9 16 -32 10 -62 -16 -60 -50 -66 -24 -26 111 15 49 30 105 34 124 3 19
16 53 27 75 33 65 36 92 13 115 -25 25 -99 26 -177 3z"/>
<path d="M7424 3850 c-28 -10 -69 -29 -92 -44 -60 -38 -182 -155 -182 -176 0
-9 -12 -39 -26 -66 -37 -69 -31 -140 15 -208 40 -58 86 -81 151 -73 108 13
252 96 258 150 3 22 0 26 -15 21 -10 -4 -34 -19 -53 -34 -57 -44 -80 -53 -126
-47 -56 6 -92 30 -110 73 -15 36 -10 84 10 84 6 0 52 20 101 44 50 24 114 55
143 67 73 32 112 77 112 132 0 53 -7 62 -53 82 -46 19 -69 18 -133 -5z m65
-28 c13 -24 -10 -87 -45 -123 -28 -30 -136 -89 -161 -89 -17 0 -17 16 3 72 18
54 73 113 129 139 50 23 62 23 74 1z"/>
<path d="M10203 3853 c-61 -18 -72 -43 -19 -43 18 0 38 -6 45 -13 15 -19 -1
-102 -45 -227 -69 -198 -64 -260 22 -260 25 0 61 7 80 16 39 18 117 102 108
115 -9 16 -32 10 -62 -16 -60 -50 -66 -24 -26 111 15 49 30 105 34 124 3 19
16 53 27 75 33 65 36 92 13 115 -25 25 -99 26 -177 3z"/>
<path d="M11603 3851 c-28 -10 -73 -34 -100 -52 -68 -47 -173 -149 -173 -169
0 -9 -12 -39 -26 -66 -37 -70 -31 -142 17 -210 46 -64 95 -83 171 -67 114 24
243 106 237 150 -5 26 -11 23 -96 -35 -42 -29 -54 -33 -95 -29 -59 5 -96 29
-114 73 -15 36 -10 84 10 84 6 0 52 20 101 44 50 24 114 55 143 67 30 13 67
38 83 57 25 29 30 41 27 79 -2 36 -9 50 -29 65 -38 28 -95 32 -156 9z m66 -29
c13 -24 -10 -87 -45 -123 -28 -30 -136 -89 -161 -89 -17 0 -17 18 2 71 19 54
76 115 130 139 51 24 62 24 74 2z"/>
<path d="M12269 3861 c-70 -8 -185 -64 -259 -126 -103 -88 -170 -218 -154
-302 10 -55 79 -123 125 -123 61 0 112 21 153 62 35 35 84 68 101 68 3 0 3
-20 -1 -45 -8 -54 4 -72 51 -81 76 -14 254 111 188 133 -6 2 -24 -8 -41 -22
-16 -14 -35 -25 -41 -25 -22 0 -10 76 34 206 54 159 58 212 19 243 -28 22 -62
24 -175 12z m24 -94 c18 -36 18 -39 -1 -105 -11 -37 -26 -88 -32 -114 -12 -44
-51 -98 -71 -98 -5 0 -29 -16 -55 -35 -53 -40 -86 -44 -108 -13 -25 35 -20 88
12 139 16 24 47 80 70 125 55 104 95 146 136 142 25 -2 35 -11 49 -41z"/>
<path d="M13534 3851 c-28 -10 -69 -30 -92 -45 -60 -38 -182 -155 -182 -176 0
-9 -11 -38 -25 -64 -35 -66 -33 -126 5 -193 17 -29 40 -59 53 -67 62 -41 183
-23 285 44 68 44 85 62 80 89 -3 24 -11 20 -95 -37 -42 -29 -54 -33 -95 -29
-59 5 -96 29 -114 73 -15 36 -10 84 10 84 6 0 52 20 101 44 50 24 114 55 143
67 30 13 67 38 83 57 25 29 30 41 27 79 -2 36 -9 50 -29 65 -37 28 -95 31
-155 9z m65 -29 c13 -24 -10 -87 -45 -123 -28 -30 -136 -89 -161 -89 -17 0
-17 16 3 72 18 54 73 113 129 139 51 23 62 23 74 1z"/>
<path d="M16210 3861 c-131 -15 -299 -131 -371 -255 -64 -112 -60 -196 13
-261 39 -36 43 -37 94 -32 61 6 126 39 144 72 10 18 67 55 86 55 3 0 2 -20 -2
-45 -8 -54 4 -72 52 -81 77 -14 253 111 187 133 -6 2 -24 -8 -41 -22 -16 -14
-35 -25 -41 -25 -22 0 -10 76 34 206 54 159 58 212 19 243 -28 22 -63 24 -174
12z m17 -78 c19 -29 22 -92 5 -126 -6 -12 -18 -51 -27 -87 -16 -70 -27 -82
-125 -152 -60 -43 -92 -48 -114 -16 -25 36 -20 88 14 142 17 26 46 79 65 117
69 137 141 185 182 122z"/>
<path d="M12980 2001 c-22 -17 -51 -20 -230 -25 -113 -4 -309 -10 -437 -14
-127 -4 -235 -11 -239 -15 -5 -4 -3 -16 2 -25 9 -13 29 -18 86 -20 92 -3 107
-16 115 -97 4 -42 2 -66 -9 -89 -17 -33 -78 -342 -78 -389 0 -15 -6 -30 -13
-33 -7 -2 -13 -22 -14 -44 -1 -21 -8 -58 -16 -82 -8 -24 -18 -72 -22 -108 -4
-36 -13 -77 -21 -91 -7 -15 -13 -40 -13 -55 0 -48 -8 -107 -20 -137 -6 -16
-11 -46 -11 -68 0 -26 -7 -46 -21 -60 -19 -19 -28 -21 -73 -14 -75 12 -108 10
-140 -6 -37 -18 -43 -35 -16 -49 26 -14 292 -15 338 -1 22 7 42 7 60 0 15 -6
85 -11 156 -11 104 0 132 3 144 16 28 28 -6 49 -94 57 -78 8 -114 26 -114 58
0 9 11 66 24 126 21 92 47 272 58 399 3 27 8 31 53 43 28 7 70 12 95 11 39 -3
47 -7 59 -33 26 -52 23 -124 -5 -173 -28 -47 -25 -77 8 -88 32 -10 69 25 89
85 36 103 71 287 76 392 5 90 3 110 -12 132 -40 62 -85 9 -85 -100 0 -70 -24
-125 -60 -134 -44 -12 -145 -10 -164 4 -16 12 -17 17 -2 72 8 33 20 105 26
159 7 55 16 109 20 122 5 12 12 50 16 84 9 83 25 100 94 100 30 0 64 1 75 2
57 6 203 -3 221 -12 38 -21 57 -69 62 -155 4 -75 19 -115 43 -115 21 0 42 58
59 157 10 59 23 119 28 133 11 29 7 44 -20 83 -23 32 -43 34 -78 8z"/>
<path d="M1225 1979 c-22 -4 -139 -8 -260 -8 -121 -1 -235 -1 -253 -1 -42 -1
-82 -16 -82 -32 0 -25 16 -34 79 -47 35 -7 81 -19 101 -27 37 -15 37 -15 29
-57 -18 -94 -200 -955 -210 -992 -6 -22 -17 -47 -24 -55 -7 -8 -15 -28 -17
-44 -2 -20 -15 -37 -44 -58 -40 -29 -43 -29 -67 -13 -22 14 -32 15 -62 5 -35
-11 -42 -24 -27 -47 15 -24 194 -32 582 -26 l387 6 18 -26 c13 -20 26 -27 49
-27 17 0 36 4 43 8 7 4 40 68 73 142 47 106 59 141 54 165 -15 73 -41 72 -90
-6 -83 -130 -121 -159 -234 -177 -84 -14 -371 -26 -399 -17 -18 5 -21 14 -21
64 0 92 42 304 144 731 24 102 54 234 65 293 12 60 26 117 32 128 17 32 54 40
149 33 81 -6 89 -5 109 15 23 23 28 59 9 65 -32 10 -97 13 -133 5z"/>
<path d="M10810 1975 c-14 -7 -69 -26 -122 -40 -53 -15 -105 -33 -115 -41 -16
-12 -9 -13 53 -14 95 0 101 -8 80 -97 -9 -38 -23 -111 -31 -163 -19 -114 -37
-184 -109 -436 -30 -105 -62 -233 -71 -285 -9 -52 -21 -119 -27 -149 -6 -30
-13 -78 -15 -106 -4 -46 -2 -53 23 -73 49 -38 138 -21 208 41 73 63 64 104
-12 58 -34 -21 -72 -27 -72 -11 0 5 27 116 59 247 33 132 91 379 130 549 39
171 82 354 95 407 22 91 22 99 6 113 -20 19 -47 19 -80 0z"/>
<path d="M15440 1980 c-8 -6 -46 -20 -85 -31 -138 -41 -165 -51 -165 -60 0 -5
29 -9 64 -9 86 0 93 -9 72 -97 -8 -38 -24 -120 -35 -183 -11 -63 -52 -227 -91
-364 -38 -136 -77 -289 -85 -340 -9 -50 -21 -116 -27 -146 -6 -30 -13 -78 -15
-106 -4 -46 -2 -53 23 -73 34 -27 79 -27 141 0 55 23 88 52 109 92 13 24 13
27 -1 27 -9 0 -33 -9 -55 -20 -40 -21 -70 -26 -70 -12 0 4 29 126 65 272 36
146 103 429 149 630 46 201 87 372 91 381 14 35 -48 63 -85 39z"/>
<path d="M7849 1951 c-135 -29 -197 -50 -218 -72 -10 -11 -26 -21 -34 -23 -9
-1 -24 -9 -34 -18 -10 -9 -45 -29 -79 -46 -68 -33 -143 -100 -168 -150 -10
-19 -33 -54 -52 -79 -19 -24 -34 -50 -34 -56 0 -7 -10 -28 -23 -47 -41 -62
-80 -271 -78 -422 0 -127 64 -277 157 -371 138 -139 337 -180 539 -112 39 13
89 28 111 34 90 24 306 192 341 265 16 34 16 38 0 53 -23 23 -47 10 -151 -84
-113 -103 -189 -148 -283 -169 -215 -48 -392 66 -444 286 -27 115 2 419 46
487 9 13 23 42 30 64 32 91 218 316 285 345 166 73 304 67 432 -19 45 -30 46
-32 53 -96 4 -37 15 -91 24 -121 14 -46 20 -55 40 -55 34 0 49 50 67 228 20
185 14 196 -87 166 -32 -10 -44 -9 -76 7 -57 27 -250 30 -364 5z"/>
<path d="M3380 1602 c-47 -23 -60 -72 -35 -125 15 -31 23 -37 61 -43 39 -5 49
-3 70 17 27 26 48 87 38 115 -20 55 -69 69 -134 36z"/>
<path d="M4290 1602 c-46 -23 -59 -59 -40 -115 14 -39 18 -43 63 -51 43 -8 50
-7 72 14 28 27 49 88 39 116 -20 55 -70 69 -134 36z"/>
<path d="M14840 1602 c-46 -23 -59 -59 -40 -115 13 -36 20 -43 53 -50 68 -16
119 27 121 102 2 74 -57 102 -134 63z"/>
<path d="M1911 1134 c-127 -45 -271 -198 -271 -288 0 -75 26 -137 83 -194 110
-113 185 -120 364 -35 131 62 166 108 185 241 10 71 9 80 -11 122 -52 111
-139 170 -245 170 -34 -1 -81 -8 -105 -16z m139 -58 c39 -14 80 -79 80 -129 0
-48 -41 -220 -64 -265 -37 -74 -60 -92 -119 -92 -39 0 -62 6 -88 24 -56 38
-62 97 -28 254 24 111 42 152 83 193 33 32 74 37 136 15z"/>
<path d="M3818 1136 c-20 -7 -60 -32 -87 -56 -48 -39 -51 -45 -51 -88 0 -50
17 -86 66 -137 96 -102 114 -126 114 -153 0 -39 -63 -112 -97 -112 -28 0 -106
57 -97 71 3 5 -1 12 -9 15 -16 6 -31 38 -41 87 -4 18 -13 27 -26 27 -27 0 -36
-23 -44 -106 l-6 -72 52 -22 c28 -12 78 -26 110 -30 59 -9 165 2 178 17 3 5
27 33 52 64 83 100 73 156 -52 277 -76 74 -83 92 -52 151 13 26 24 35 48 37
49 5 82 -26 90 -87 4 -28 14 -57 22 -66 14 -13 18 -8 39 47 39 105 31 126 -53
135 -27 3 -65 8 -84 10 -19 2 -52 -2 -72 -9z"/>
<path d="M5760 1144 c-81 -13 -183 -66 -234 -123 -11 -11 -23 -21 -28 -21 -11
0 -10 38 2 45 18 11 10 43 -16 64 -30 24 -112 28 -176 10 -52 -14 -51 -39 1
-39 22 0 43 -5 47 -12 18 -29 3 -124 -41 -255 -25 -75 -45 -143 -45 -152 -1
-27 -34 -59 -64 -63 -16 -2 -31 -9 -34 -16 -3 -10 21 -12 110 -10 l113 3 18
36 c9 19 22 73 27 120 25 200 49 243 163 298 96 46 102 46 117 10 12 -27 10
-40 -8 -98 -12 -37 -22 -79 -22 -94 0 -15 -11 -60 -25 -101 -28 -85 -32 -148
-10 -166 27 -22 87 -16 157 17 73 34 117 85 96 110 -16 20 -32 16 -63 -17 -32
-34 -72 -42 -60 -12 18 44 85 346 85 381 0 22 -59 92 -76 90 -5 -1 -20 -3 -34
-5z"/>
<path d="M9901 1134 c-88 -31 -159 -88 -222 -178 -55 -78 -61 -112 -34 -201
18 -57 95 -144 157 -176 69 -36 181 -17 307 53 105 57 135 102 153 227 11 72
10 81 -10 122 -54 110 -140 169 -246 169 -34 -1 -81 -8 -105 -16z m139 -58
c39 -14 80 -79 80 -129 0 -48 -41 -219 -64 -265 -35 -73 -58 -92 -112 -92 -95
0 -144 48 -144 142 0 54 42 233 63 273 9 17 27 42 42 58 29 30 73 35 135 13z"/>
<path d="M8604 1120 c-34 -12 -55 -15 -62 -8 -5 5 -22 8 -38 6 -23 -2 -30 -9
-32 -31 l-3 -27 55 6 c55 7 56 6 56 -19 0 -42 -49 -264 -79 -357 l-27 -85 -63
3 c-61 4 -63 3 -59 -20 3 -21 7 -23 58 -22 145 4 308 5 330 2 21 -2 25 1 25
22 0 24 -2 25 -65 25 l-65 0 2 50 c5 111 69 293 127 363 39 45 61 42 88 -15
21 -45 25 -48 57 -45 45 3 59 16 71 64 14 50 6 74 -30 93 -64 33 -128 11 -189
-65 -40 -50 -60 -42 -40 15 12 34 12 38 -6 51 -24 18 -48 17 -111 -6z"/>
<path d="M15720 1120 c-14 -4 -52 -9 -85 -9 -77 -2 -106 -17 -94 -49 7 -19 12
-21 29 -12 12 6 33 10 48 8 52 -6 62 -67 40 -254 -6 -56 -8 -110 -3 -120 4
-10 9 -27 10 -36 2 -23 30 -53 71 -79 39 -24 39 -22 -32 -164 -62 -122 -135
-233 -158 -241 -11 -4 -61 -12 -110 -18 -79 -9 -91 -14 -91 -30 0 -18 12 -19
250 -20 l250 -1 0 24 c0 22 -5 25 -45 28 -64 4 -110 21 -110 41 0 41 86 194
152 270 16 18 46 68 67 110 22 42 58 101 80 131 23 30 41 59 41 64 0 4 20 36
44 70 83 117 102 180 75 241 -14 30 -67 50 -109 41 -39 -9 -80 -42 -80 -65 0
-16 7 -18 43 -17 41 2 42 1 40 -28 -6 -85 -71 -225 -153 -330 -65 -83 -94 -43
-85 120 9 154 5 308 -7 323 -12 13 -40 14 -78 2z"/>
<path d="M2567 1104 c-89 -17 -137 -35 -137 -51 0 -9 14 -13 40 -13 35 0 42
-4 51 -27 9 -22 8 -38 -6 -73 -9 -25 -24 -65 -32 -90 -8 -25 -28 -76 -44 -115
-16 -38 -29 -80 -29 -92 0 -32 64 -99 106 -113 68 -23 192 12 221 61 23 38 33
37 33 -5 0 -18 6 -38 13 -44 21 -18 80 -23 103 -10 12 7 50 28 85 47 80 42 99
58 99 87 0 17 -7 24 -32 29 -27 6 -35 3 -55 -21 -13 -16 -23 -32 -23 -36 0 -5
-7 -8 -15 -8 -8 0 -15 2 -15 4 0 16 83 343 99 390 34 97 -3 122 -105 70 l-52
-26 -6 -77 c-11 -119 -25 -189 -52 -250 -54 -122 -160 -185 -225 -132 -22 18
-23 21 -11 83 16 88 65 255 86 296 22 43 18 101 -9 117 -16 10 -34 10 -88 -1z"/>
<path d="M3233 1102 c-61 -17 -72 -42 -19 -42 18 0 38 -6 45 -13 14 -17 1
-101 -29 -182 -61 -167 -76 -247 -54 -282 19 -30 89 -31 143 -3 42 21 114 97
105 111 -9 16 -32 10 -62 -16 -62 -52 -65 -29 -21 135 17 63 42 140 56 171 30
67 32 107 7 126 -23 17 -105 15 -171 -5z"/>
<path d="M4143 1103 c-61 -18 -72 -43 -19 -43 18 0 38 -6 45 -13 14 -17 1
-101 -29 -182 -61 -167 -76 -247 -54 -282 19 -30 89 -31 143 -3 42 21 114 97
105 111 -9 16 -32 10 -62 -16 -60 -50 -66 -24 -26 111 15 49 30 105 34 124 3
19 16 53 27 75 33 65 36 92 13 115 -25 25 -99 26 -177 3z"/>
<path d="M4870 1111 c-216 -25 -454 -279 -411 -439 15 -54 79 -112 124 -112
59 0 111 21 151 62 35 35 84 68 101 68 3 0 2 -24 -1 -54 l-7 -54 40 -12 c49
-15 88 -4 157 42 48 31 71 61 61 78 -10 15 -21 12 -53 -15 -17 -14 -35 -25
-41 -25 -22 0 -10 76 34 206 54 159 58 212 19 243 -28 22 -63 24 -174 12z m17
-78 c20 -30 23 -104 6 -125 -6 -7 -16 -40 -23 -73 -14 -71 -35 -109 -66 -124
-12 -5 -43 -26 -69 -45 -54 -41 -87 -45 -109 -14 -25 36 -20 88 14 142 17 26
46 79 65 117 69 137 141 185 182 122z"/>
<path d="M6419 1111 c-160 -17 -360 -184 -405 -337 -22 -76 -11 -119 43 -173
43 -43 44 -44 97 -38 64 6 107 27 144 68 24 27 71 59 87 59 3 0 2 -24 -1 -54
-6 -53 -6 -53 26 -65 48 -16 60 -14 128 20 61 30 109 79 97 99 -10 15 -21 12
-53 -15 -17 -14 -35 -25 -41 -25 -22 0 -10 74 34 207 53 160 57 212 19 242
-28 22 -62 24 -175 12z m18 -78 c19 -29 22 -92 5 -126 -6 -12 -18 -51 -27 -87
-16 -70 -27 -82 -125 -152 -60 -43 -92 -48 -114 -16 -25 36 -20 88 14 142 17
26 46 79 65 117 69 137 141 185 182 122z"/>
<path d="M9400 1111 c-67 -21 -148 -71 -219 -138 -62 -57 -80 -80 -86 -110 -4
-20 -15 -48 -26 -61 -30 -39 -26 -115 11 -179 36 -62 65 -84 123 -90 97 -11
297 92 297 154 l0 23 -37 -20 c-21 -12 -54 -32 -73 -46 -64 -47 -166 -20 -196
52 -15 36 -10 84 10 84 6 0 52 20 101 44 50 24 114 55 143 67 73 32 112 77
112 132 0 53 -7 62 -53 82 -39 16 -67 18 -107 6z m39 -39 c13 -24 -10 -87 -45
-123 -28 -30 -136 -89 -161 -89 -17 0 -17 16 3 72 18 55 72 114 128 139 51 23
63 23 75 1z"/>
<path d="M11204 1100 c-69 -24 -121 -58 -198 -130 -42 -39 -69 -74 -77 -98 -6
-20 -20 -52 -31 -70 -31 -51 -22 -133 21 -196 40 -58 86 -81 151 -73 109 13
252 96 258 150 l3 28 -38 -21 c-21 -11 -54 -32 -73 -46 -64 -47 -166 -20 -196
52 -15 36 -10 84 10 84 6 0 52 20 101 44 50 24 114 55 143 67 73 32 112 77
112 132 0 53 -7 62 -53 82 -46 19 -69 18 -133 -5z m65 -28 c13 -24 -10 -87
-45 -123 -28 -30 -136 -89 -161 -89 -17 0 -17 16 2 71 19 54 75 115 130 140
51 23 62 23 74 1z"/>
<path d="M13199 1112 c-161 -20 -360 -185 -405 -338 -22 -76 -11 -119 43 -173
43 -43 44 -44 97 -38 64 6 107 27 144 68 24 28 71 59 87 59 3 0 3 -20 -1 -45
-8 -54 4 -72 52 -81 77 -14 253 111 187 133 -6 2 -24 -8 -41 -22 -16 -14 -35
-25 -41 -25 -22 0 -10 76 34 206 69 205 60 255 -48 260 -28 1 -77 -1 -108 -4z
m18 -79 c20 -30 23 -104 6 -125 -6 -7 -16 -40 -23 -73 -15 -72 -35 -109 -69
-127 -14 -7 -45 -28 -69 -45 -51 -39 -85 -42 -106 -11 -25 35 -20 88 12 139
16 24 47 80 70 125 72 138 137 181 179 117z"/>
<path d="M13670 1105 c-19 -7 -45 -14 -57 -14 -12 -1 -25 -6 -29 -12 -9 -15
14 -28 38 -21 49 13 50 -84 3 -268 -19 -74 -35 -142 -35 -152 0 -28 -29 -48
-70 -48 -35 0 -60 -14 -47 -26 11 -12 82 -16 151 -9 74 6 75 7 86 39 6 19 19
84 30 146 30 177 45 213 104 247 130 76 141 72 134 -40 -3 -47 -22 -143 -44
-225 -42 -159 -42 -155 30 -168 52 -8 71 14 81 93 19 161 60 286 109 332 12
11 40 29 62 40 36 18 41 18 66 3 24 -14 28 -23 28 -62 0 -25 -6 -65 -14 -90
-52 -160 -66 -214 -66 -253 0 -46 17 -71 41 -63 8 3 40 10 72 16 39 8 69 21
93 42 56 49 37 79 -27 41 -15 -9 -31 -14 -35 -10 -4 3 1 36 10 72 34 135 67
319 62 340 -6 25 -39 40 -102 49 -37 5 -49 1 -104 -35 -34 -23 -67 -50 -73
-60 -7 -11 -20 -19 -30 -19 -16 0 -18 7 -15 42 3 38 0 44 -32 66 -52 35 -99
27 -195 -37 -43 -28 -82 -51 -88 -51 -5 0 -7 16 -4 38 7 56 -6 72 -56 71 -23
0 -58 -7 -77 -14z"/>
<path d="M14693 1103 c-61 -18 -72 -43 -19 -43 18 0 38 -6 45 -13 15 -19 0
-101 -44 -227 -71 -203 -66 -260 21 -260 57 0 112 28 158 81 50 60 27 84 -32
34 -62 -52 -65 -29 -21 135 17 63 41 140 54 170 37 85 38 97 16 119 -26 26
-100 27 -178 4z"/>
</g>
</svg>
